#!OML:ASF H:\GeneralSubjects\Female5\Project 1\Capture day 1\Session 1\Female5.ASF
:FULLY-SPECIFIED
:DEGREES
105
root 22.0893 15.3905 2.99078 31.7073 -83.1367 -17.4757
lowerback 6.84988 0.530299 0.741279
upperback -7.48123 0.980171 3.10921
thorax -11.9831 0.509844 2.80948
lowerneck -5.76987 1.51825 -0.646998
upperneck 54.3624 -3.66501 0.160051
head 25.8303 -2.86502 -1.20896
rclavicle 3.70236e-015 1.03368e-014
rhumerus -44.3631 18.2087 -81.3211
rradius 30.9829
rwrist -11.3924
rhand -12.5942 -25.9851
rfingers 7.12502
rthumb 13.4844 -55.5285
lclavicle 3.70236e-015 1.03368e-014
lhumerus -41.909 -6.05034 90.8117
lradius 27.9456
lwrist -5.81809
lhand -25.8818 34.5123
lfingers 7.12502
lthumb 0.659912 64.491
rfemur -29.3993 22.0706 20.6196
rtibia -2.32892
rfoot -28.9966 -36.6675
rtoes 13.9719
lfemur 8.75651 -29.7733 -36.773
ltibia -0.502974
lfoot -33.1561 23.0513
ltoes -65.7914
106
root 21.9138 15.4115 2.96607 35.6749 -82.7736 -21.2698
lowerback 6.85436 0.656347 1.33745
upperback -7.47545 1.24463 3.36711
thorax -11.9872 0.595401 2.7109
lowerneck -5.79552 1.29678 -0.665891
upperneck 54.2426 -3.92339 0.0567689
head 25.6778 -2.95422 -1.3047
rclavicle 1.82882e-014 -7.15625e-015
rhumerus -44.0311 18.3585 -81.2264
rradius 30.6276
rwrist -11.0375
rhand -12.8555 -25.7805
rfingers 7.12502
rthumb 13.2324 -55.3405
lclavicle 1.82882e-014 -7.15625e-015
lhumerus -41.481 -5.4405 90.7312
lradius 26.9855
lwrist -6.83932
lhand -25.3945 34.3219
lfingers 7.12502
lthumb 1.13056 64.2987
rfemur -29.1052 21.8484 21.5058
rtibia -1.92687
rfoot -28.2678 -35.1039
rtoes 16.906
lfemur 8.91161 -29.6972 -36.0382
ltibia 0.016579
lfoot -33.6751 22.403
ltoes -65.5355
107
root 21.7422 15.4334 2.93991 39.3011 -82.4804 -24.7183
lowerback 7.20523 0.639749 2.15292
upperback -7.57026 1.35038 3.5052
thorax -12.3041 0.578488 2.38927
lowerneck -5.89348 1.30104 -0.725695
upperneck 54.1396 -3.88889 0.130982
head 25.5985 -2.93926 -1.23348
rclavicle 7.42958e-015 -3.26007e-014
rhumerus -43.7606 19.0601 -81.7181
rradius 30.2076
rwrist -10.6465
rhand -14.2137 -25.2323
rfingers 7.12502
rthumb 11.9231 -54.8727
lclavicle 7.42958e-015 -3.26007e-014
lhumerus -41.3143 -4.74555 90.3563
lradius 26.2806
lwrist -7.60303
lhand -25.1048 34.0677
lfingers 7.12502
lthumb 1.41033 64.0428
rfemur -28.8726 21.8025 22.438
rtibia -1.41902
rfoot -27.5872 -34.5503
rtoes 16.8671
lfemur 8.9632 -29.6158 -35.2852
ltibia 0.518727
lfoot -34.4865 21.2535
ltoes -64.9871
108
root 21.5686 15.4549 2.91345 41.9114 -82.2441 -27.1447
lowerback 7.28202 0.739439 2.549
upperback -7.59712 1.55814 3.73205
thorax -12.3888 0.651489 2.38039
lowerneck -5.87038 1.22043 -0.756714
upperneck 54.0622 -3.97708 0.128479
head 25.487 -2.96666 -1.23437
rclavicle -5.46658e-016 3.4191e-014
rhumerus -43.5794 19.7751 -81.9075
rradius 30.0396
rwrist -10.1502
rhand -15.3818 -24.9528
rfingers 7.12502
rthumb 10.7965 -54.6553
lclavicle -5.46658e-016 3.4191e-014
lhumerus -41.1211 -4.65186 90.5489
lradius 25.7415
lwrist -7.99072
lhand -24.426 35.2923
lfingers 7.12502
lthumb 2.06598 65.2621
rfemur -28.5232 21.7959 23.3039
rtibia -1.13257
rfoot -26.8555 -34.5544
rtoes 16.236
lfemur 8.91556 -29.0768 -34.5718
ltibia 1.13474
lfoot -34.2631 21.1525
ltoes -65.6249
109
root 21.389 15.4767 2.88499 43.5461 -82.0767 -28.6071
lowerback 7.46334 0.647993 3.14244
upperback -7.64528 1.52447 3.77809
thorax -12.5448 0.581378 2.10622
lowerneck -5.8114 1.27816 -0.660682
upperneck 53.9808 -3.8206 0.00502795
head 25.3358 -2.90101 -1.28684
rclavicle 6.95746e-015 -7.95139e-016
rhumerus -43.3867 20.7334 -82.4194
rradius 30.2546
rwrist -10.1294
rhand -15.4282 -24.5523
rfingers 7.12502
rthumb 10.7517 -54.2572
lclavicle 6.95746e-015 -7.95139e-016
lhumerus -41.1054 -5.09188 90.7732
lradius 25.5709
lwrist -7.70145
lhand -24.5602 35.716
lfingers 7.12502
lthumb 1.93633 65.687
rfemur -27.9511 21.7535 24.0418
rtibia -1.18052
rfoot -26.0852 -34.2703
rtoes 17.4363
lfemur 8.79444 -27.9735 -33.8654
ltibia 1.89582
lfoot -33.3888 21.2735
ltoes -66.5801
110
root 21.208 15.4957 2.85307 44.2564 -82.0407 -29.1878
lowerback 7.5941 0.560348 3.46057
upperback -7.64555 1.45696 3.80151
thorax -12.62 0.520331 1.96656
lowerneck -5.71377 1.26644 -0.663856
upperneck 53.8504 -3.76412 -0.0843016
head 25.1137 -2.89065 -1.31387
rclavicle -7.8023e-015 -4.77083e-015
rhumerus -42.9563 21.6665 -82.8022
rradius 30.441
rwrist -10.3828
rhand -14.8835 -24.2261
rfingers 7.12502
rthumb 11.2772 -53.903
lclavicle -7.8023e-015 -4.77083e-015
lhumerus -41.1416 -5.94688 91.2108
lradius 25.7487
lwrist -6.96314
lhand -24.3374 35.9256
lfingers 7.12502
lthumb 2.15149 65.8945
rfemur -27.2601 21.7337 24.6373
rtibia -1.33981
rfoot -25.6851 -33.6275
rtoes 19.3194
lfemur 8.71712 -26.7214 -33.284
ltibia 2.54443
lfoot -32.6131 20.6911
ltoes -66.8446
111
root 21.0285 15.5166 2.82023 44.2759 -82.0588 -29.1041
lowerback 7.5043 0.70081 3.16771
upperback -7.59248 1.61871 3.99515
thorax -12.5196 0.635076 2.31259
lowerneck -5.94007 1.29656 -0.664317
upperneck 54.069 -3.85154 0.0476755
head 25.5189 -2.89956 -1.27549
rclavicle 6.90777e-015 -2.78299e-014
rhumerus -42.4135 22.3399 -82.6317
rradius 30.5057
rwrist -10.7581
rhand -14.9572 -24.2849
rfingers 7.12502
rthumb 11.206 -53.9656
lclavicle 6.90777e-015 -2.78299e-014
lhumerus -40.9005 -6.88976 92.0866
lradius 25.7823
lwrist -6.60188
lhand -24.7384 36.1323
lfingers 7.12502
lthumb 1.76419 66.1048
rfemur -26.6333 21.6659 25.1037
rtibia -1.3215
rfoot -25.387 -33.1274
rtoes 19.7036
lfemur 8.56113 -25.2477 -32.7165
ltibia 3.17907
lfoot -31.3989 20.0073
ltoes -67.3763
112
root 20.8479 15.5404 2.78658 44.6634 -82.0427 -29.3151
lowerback 7.57849 0.606014 3.4095
upperback -7.62014 1.52585 3.98885
thorax -12.5905 0.567166 2.18829
lowerneck -5.81762 1.35319 -0.735565
upperneck 54.0879 -3.82509 0.14538
head 25.4918 -2.90508 -1.19637
rclavicle -1.75427e-014 -1.03368e-014
rhumerus -41.7519 23.3284 -83.0168
rradius 30.6111
rwrist -11.1164
rhand -15.4533 -24.4949
rfingers 7.12502
rthumb 10.7276 -54.201
lclavicle -1.75427e-014 -1.03368e-014
lhumerus -40.5426 -7.34823 92.2871
lradius 25.6688
lwrist -6.67951
lhand -24.6103 34.6522
lfingers 7.12502
lthumb 1.88792 64.6235
rfemur -26.2407 21.573 25.5413
rtibia -0.998061
rfoot -25.123 -32.6713
rtoes 19.5973
lfemur 8.15226 -23.4118 -31.8759
ltibia 4.02685
lfoot -29.4197 19.3933
ltoes -67.8947
113
root 20.6664 15.5621 2.74989 45.1834 -82.0251 -29.5805
lowerback 7.37873 0.604537 3.45922
upperback -7.61709 1.51991 4.04812
thorax -12.4644 0.562429 2.22612
lowerneck -5.77565 1.36753 -0.733398
upperneck 54.0812 -3.83113 0.184915
head 25.4652 -2.90232 -1.17126
rclavicle 2.25124e-014 2.14687e-014
rhumerus -41.0898 24.0297 -83.0028
rradius 30.9153
rwrist -11.1179
rhand -15.7058 -24.665
rfingers 7.12502
rthumb 10.4839 -54.3836
lclavicle 2.25124e-014 2.14687e-014
lhumerus -40.1469 -8.36172 92.8784
lradius 25.6589
lwrist -6.52033
lhand -25.0465 34.1182
lfingers 7.12502
lthumb 1.46665 64.0929
rfemur -26.1074 21.4867 25.9268
rtibia -0.477475
rfoot -24.7063 -32.3735
rtoes 19.28
lfemur 7.4201 -21.1989 -30.7888
ltibia 5.23933
lfoot -27.7959 17.712
ltoes -68.339
114
root 20.489 15.5877 2.71325 45.7014 -81.9642 -29.8668
lowerback 7.13119 0.63886 3.43854
upperback -7.59754 1.55273 4.14608
thorax -12.2935 0.58486 2.33828
lowerneck -5.73348 1.32565 -0.633812
upperneck 54.0486 -3.84632 0.0420825
head 25.3869 -2.89471 -1.27344
rclavicle -5.96354e-015 -7.15625e-015
rhumerus -40.3695 24.2663 -82.6167
rradius 31.3132
rwrist -10.5485
rhand -15.7019 -24.5866
rfingers 7.12502
rthumb 10.4877 -54.305
lclavicle -5.96354e-015 -7.15625e-015
lhumerus -39.8722 -9.77085 93.691
lradius 26.0481
lwrist -6.15087
lhand -25.2825 34.451
lfingers 7.12502
lthumb 1.23873 64.4272
rfemur -25.6169 20.3868 26.8927
rtibia -0.253521
rfoot -23.7498 -31.1417
rtoes 18.4615
lfemur 6.34867 -18.6335 -29.4991
ltibia 7.05765
lfoot -26.1844 15.3652
ltoes -68.6876
115
root 20.3168 15.6215 2.67914 46.2024 -81.827 -30.2056
lowerback 7.18576 0.505791 3.82934
upperback -7.63943 1.42215 4.1099
thorax -12.3649 0.483631 2.10455
lowerneck -5.71209 1.43808 -0.49076
upperneck 54.0861 -3.68936 -0.0310164
head 25.4132 -2.82011 -1.31899
rclavicle 7.60351e-015 -3.4191e-014
rhumerus -39.5159 24.5177 -82.5246
rradius 31.5991
rwrist -9.96083
rhand -15.6686 -24.2769
rfingers 7.12502
rthumb 10.5199 -53.9937
lclavicle 7.60351e-015 -3.4191e-014
lhumerus -39.861 -11.375 94.3016
lradius 26.8901
lwrist -5.29357
lhand -25.8605 33.6331
lfingers 7.12502
lthumb 0.680506 63.6118
rfemur -24.9199 20.286 27.5094
rtibia -0.406931
rfoot -23.9817 -30.6317
rtoes 17.9079
lfemur 5.03822 -15.6933 -28.0201
ltibia 9.39195
lfoot -23.9021 13.093
ltoes -67.8139
116
root 20.1463 15.6569 2.64756 46.2967 -81.7017 -30.2028
lowerback 7.22929 0.41302 4.15944
upperback -7.65741 1.33878 4.08235
thorax -12.4058 0.411448 1.90544
lowerneck -5.70185 1.50953 -0.513574
upperneck 54.1209 -3.65891 0.102942
head 25.4643 -2.80571 -1.23162
rclavicle 6.4605e-016 1.19271e-014
rhumerus -38.6612 24.8917 -82.4476
rradius 31.7691
rwrist -10.0632
rhand -16.1776 -23.9367
rfingers 7.12502
rthumb 10.0288 -53.6778
lclavicle 6.4605e-016 1.19271e-014
lhumerus -38.7355 -11.0629 94.0475
lradius 26.2941
lwrist -6.48686
lhand -26.3142 32.8881
lfingers 7.12502
lthumb 0.242302 62.8677
rfemur -23.964 21.1063 27.7563
rtibia -1.02749
rfoot -24.8267 -30.9625
rtoes 17.9266
lfemur 3.62003 -12.4203 -26.5064
ltibia 12.0306
lfoot -21.1463 10.8838
ltoes -66.4734
